<svg width="32" height="32" viewBox="0 0 32 32" fill="none" xmlns="http://www.w3.org/2000/svg">
<path d="M27.2855 27.8231C28.7861 26.0347 29.9198 23.9683 30.6218 21.7418C31.3238 19.5153 31.5804 17.1723 31.3769 14.8466C31.1735 12.521 30.5139 10.2582 29.4359 8.18739C28.7695 6.90723 27.9513 5.71597 27.0011 4.6384C26.0271 3.53379 24.3269 3.69239 23.3803 4.82056V4.82056C22.4336 5.94873 22.6093 7.6174 23.5104 8.7823C23.9624 9.36667 24.3626 9.99153 24.7053 10.65C25.4599 12.0995 25.9216 13.6835 26.064 15.3115C26.2065 16.9394 26.0268 18.5795 25.5354 20.138C25.044 21.6966 24.2505 23.1431 23.2 24.3949L27.2855 27.8231Z" fill="url(#paint0_linear_495_5355)"/>
<path d="M4.44427 27.8409C6.23264 29.3415 8.29906 30.4752 10.5256 31.1772C12.7521 31.8792 15.095 32.1358 17.4207 31.9324C19.7464 31.7289 22.0092 31.0693 24.0799 29.9914C25.3601 29.325 26.5514 28.5067 27.6289 27.5565C28.7335 26.5825 28.5749 24.8823 27.4468 23.9357V23.9357C26.3186 22.989 24.6499 23.1648 23.485 24.0658C22.9007 24.5178 22.2758 24.918 21.6174 25.2608C20.1678 26.0153 18.5838 26.477 16.9559 26.6195C15.3279 26.7619 13.6878 26.5823 12.1293 26.0909C10.5707 25.5994 9.12424 24.8059 7.87239 23.7554L4.44427 27.8409Z" fill="url(#paint1_linear_495_5355)"/>
<path d="M4.1591 4.99969C2.65848 6.78806 1.5248 8.85448 0.822789 11.081C0.120777 13.3075 -0.135821 15.6504 0.0676482 17.9761C0.271117 20.3018 0.930667 22.5646 2.00864 24.6354C2.67505 25.9155 3.4933 27.1068 4.44349 28.1844C5.41752 29.289 7.11768 29.1304 8.06432 28.0022V28.0022C9.01097 26.874 8.83524 25.2054 7.93418 24.0405C7.48216 23.4561 7.08201 22.8312 6.73924 22.1728C5.98466 20.7232 5.52297 19.1393 5.38054 17.5113C5.23811 15.8833 5.41773 14.2433 5.90914 12.6847C6.40055 11.1262 7.19413 9.67966 8.24456 8.4278L4.1591 4.99969Z" fill="url(#paint2_linear_495_5355)"/>
<path d="M27.5377 4.1591C25.7493 2.65848 23.6829 1.5248 21.4564 0.82279C19.2299 0.120777 16.8869 -0.13582 14.5612 0.0676487C12.2356 0.271117 9.97276 0.930667 7.90199 2.00864C6.62183 2.67505 5.43057 3.4933 4.353 4.44349C3.24839 5.41752 3.40699 7.11768 4.53516 8.06432V8.06432C5.66333 9.01097 7.332 8.83524 8.4969 7.93418C9.08127 7.48216 9.70613 7.08201 10.3646 6.73924C11.8141 5.98466 13.3981 5.52297 15.0261 5.38054C16.654 5.23811 18.2941 5.41773 19.8526 5.90914C21.4112 6.40055 22.8577 7.19413 24.1095 8.24456L27.5377 4.1591Z" fill="url(#paint3_linear_495_5355)"/>
<defs>
<linearGradient id="paint0_linear_495_5355" x1="23.8884" y1="4.44445" x2="26.6661" y2="24.9995" gradientUnits="userSpaceOnUse">
<stop stop-color="#EE3D48"/>
<stop offset="1" stop-color="#EE3D48" stop-opacity="0"/>
</linearGradient>
<linearGradient id="paint1_linear_495_5355" x1="27.4999" y1="25" x2="5.99994" y2="26" gradientUnits="userSpaceOnUse">
<stop stop-color="#4ACC67"/>
<stop offset="1" stop-color="#4ACC67" stop-opacity="0"/>
</linearGradient>
<linearGradient id="paint2_linear_495_5355" x1="7.5" y1="27.9998" x2="5" y2="6.99982" gradientUnits="userSpaceOnUse">
<stop stop-color="#4355F8"/>
<stop offset="1" stop-color="#4355F8" stop-opacity="0"/>
</linearGradient>
<linearGradient id="paint3_linear_495_5355" x1="4.72205" y1="8.05534" x2="23.8882" y2="4.99986" gradientUnits="userSpaceOnUse">
<stop stop-color="#4D44F8"/>
<stop offset="1" stop-color="#0256D0" stop-opacity="0"/>
</linearGradient>
</defs>
</svg>
