<svg width="21" height="20" viewBox="0 0 21 20" fill="none" xmlns="http://www.w3.org/2000/svg">
<path d="M4.45837 4.79183C4.45837 4.33159 4.83147 3.9585 5.29171 3.9585H8.20837C8.66861 3.9585 9.04171 4.33159 9.04171 4.79183V7.7085C9.04171 8.16873 8.66861 8.54183 8.20837 8.54183H5.29171C4.83147 8.54183 4.45837 8.16873 4.45837 7.7085V4.79183Z" stroke="white" stroke-width="1.5" stroke-linecap="round" stroke-linejoin="round"/>
<path d="M4.45837 12.2918C4.45837 11.8316 4.83147 11.4585 5.29171 11.4585H8.20837C8.66861 11.4585 9.04171 11.8316 9.04171 12.2918V15.2085C9.04171 15.6687 8.66861 16.0418 8.20837 16.0418H5.29171C4.83147 16.0418 4.45837 15.6687 4.45837 15.2085V12.2918Z" stroke="white" stroke-width="1.5" stroke-linecap="round" stroke-linejoin="round"/>
<path d="M11.9584 4.79183C11.9584 4.33159 12.3315 3.9585 12.7917 3.9585H15.7084C16.1686 3.9585 16.5417 4.33159 16.5417 4.79183V7.7085C16.5417 8.16873 16.1686 8.54183 15.7084 8.54183H12.7917C12.3315 8.54183 11.9584 8.16873 11.9584 7.7085V4.79183Z" stroke="white" stroke-width="1.5" stroke-linecap="round" stroke-linejoin="round"/>
<path d="M11.9584 12.2918C11.9584 11.8316 12.3315 11.4585 12.7917 11.4585H15.7084C16.1686 11.4585 16.5417 11.8316 16.5417 12.2918V15.2085C16.5417 15.6687 16.1686 16.0418 15.7084 16.0418H12.7917C12.3315 16.0418 11.9584 15.6687 11.9584 15.2085V12.2918Z" stroke="white" stroke-width="1.5" stroke-linecap="round" stroke-linejoin="round"/>
</svg>
