<svg width="24" height="24" viewBox="0 0 24 24" fill="none" xmlns="http://www.w3.org/2000/svg">
<rect width="24" height="24" rx="12" fill="#FF9939" fill-opacity="0.12"/>
<path d="M17.5519 6L12.3975 9.84432L13.3507 7.57622L17.5519 6Z" fill="#E2761B"/>
<path d="M5.65283 6L10.7659 9.88073L9.85929 7.57622L5.65283 6ZM15.6976 14.9111L14.3248 17.0231L17.2621 17.8347L18.1065 14.9579L15.6976 14.9111ZM5.10889 14.9579L5.94811 17.8347L8.88538 17.0231L7.51258 14.9111L5.10889 14.9579Z" fill="#E4761B"/>
<path d="M8.71938 11.3425L7.90088 12.5858L10.8174 12.7159L10.7138 9.56864L8.71938 11.3425ZM14.4851 11.3425L12.4648 9.53223L12.3974 12.7159L15.3088 12.5858L14.4851 11.3425ZM8.88515 17.0232L10.6361 16.1648L9.12345 14.9788L8.88515 17.0232ZM12.5684 16.1648L14.3245 17.0232L14.0811 14.9788L12.5684 16.1648Z" fill="#E4761B"/>
<path d="M14.3246 17.0234L12.5685 16.165L12.7084 17.3147L12.6928 17.7985L14.3246 17.0234ZM8.88525 17.0234L10.5171 17.7985L10.5067 17.3147L10.6362 16.165L8.88525 17.0234Z" fill="#D7C1B3"/>
<path d="M10.5429 14.2191L9.08203 13.7874L10.1129 13.314L10.5429 14.2191ZM12.6617 14.2191L13.0916 13.314L14.1277 13.7874L12.6617 14.2191Z" fill="#233447"/>
<path d="M8.88525 17.0233L9.13391 14.9113L7.51245 14.9581L8.88525 17.0233ZM14.076 14.9113L14.3246 17.0233L15.6974 14.9581L14.076 14.9113ZM15.3089 12.5859L12.3975 12.716L12.6669 14.2194L13.0969 13.3142L14.133 13.7876L15.3089 12.5859ZM9.08211 13.7876L10.1182 13.3142L10.543 14.2194L10.8175 12.716L7.90098 12.5859L9.08211 13.7876Z" fill="#CD6116"/>
<path d="M7.90088 12.5859L9.12345 14.9789L9.082 13.7876L7.90088 12.5859ZM14.1329 13.7876L14.0811 14.9789L15.3088 12.5859L14.1329 13.7876ZM10.8174 12.716L10.5429 14.2194L10.8848 15.9933L10.9625 13.6576L10.8174 12.716ZM12.3974 12.716L12.2576 13.6524L12.3197 15.9933L12.6668 14.2194L12.3974 12.716Z" fill="#E4751F"/>
<path d="M12.6669 14.2194L12.3198 15.9933L12.5684 16.1649L14.0811 14.9789L14.1329 13.7876L12.6669 14.2194ZM9.08203 13.7876L9.12347 14.9789L10.6361 16.1649L10.8848 15.9933L10.5429 14.2194L9.08203 13.7876Z" fill="#F6851B"/>
<path d="M12.6928 17.7981L12.7084 17.3143L12.5789 17.1998H10.6259L10.5067 17.3143L10.5171 17.7981L8.88525 17.0229L9.4551 17.4911L10.6103 18.2975H12.5944L13.7548 17.4911L14.3246 17.0229L12.6928 17.7981Z" fill="#C0AD9E"/>
<path d="M12.5684 16.1648L12.3197 15.9932H10.8848L10.6361 16.1648L10.5066 17.3145L10.6257 17.2H12.5787L12.7083 17.3145L12.5684 16.1648Z" fill="#161616"/>
<path d="M17.7696 10.094L18.21 7.97158L17.5521 6L12.5685 9.71427L14.4853 11.3425L17.1946 12.1384L17.7955 11.4361L17.5365 11.2489L17.9509 10.8691L17.6298 10.6194L18.0442 10.3021L17.7696 10.094ZM5 7.97158L5.44033 10.094L5.16059 10.3021L5.57502 10.6194L5.25902 10.8691L5.67345 11.2489L5.41443 11.4361L6.01017 12.1384L8.71951 11.3425L10.6363 9.71427L5.65273 6L5 7.97158Z" fill="#763D16"/>
<path d="M17.1947 12.1384L14.4854 11.3425L15.309 12.5857L14.0813 14.9787L15.6976 14.9579H18.1065L17.1947 12.1384ZM8.71961 11.3425L6.01027 12.1384L5.10889 14.9579H7.51258L9.12368 14.9787L7.90111 12.5857L8.71961 11.3425ZM12.3977 12.7158L12.5686 9.71422L13.356 7.57617H9.85929L10.6363 9.71422L10.8177 12.7158L10.8798 13.6626L10.885 15.9931H12.32L12.3303 13.6626L12.3977 12.7158Z" fill="#F6851B"/>
</svg>
