<svg width="24" height="24" viewBox="0 0 24 24" fill="none" xmlns="http://www.w3.org/2000/svg">
<rect width="24" height="24" rx="12" fill="#5444BD"/>
<path d="M17.2941 11.9276H15.9505C15.9505 9.06803 13.7231 6.75 10.9751 6.75C8.26129 6.75 6.05488 9.01128 6.00088 11.8219C5.94501 14.7272 8.56422 17.25 11.3564 17.25H11.7076C14.1692 17.25 17.4685 15.2447 17.984 12.8013C18.0792 12.351 17.7373 11.9276 17.2941 11.9276ZM8.9785 12.055C8.9785 12.4374 8.67795 12.7502 8.31049 12.7502C7.94302 12.7502 7.64248 12.4373 7.64248 12.055V10.9304C7.64248 10.548 7.94302 10.2352 8.31049 10.2352C8.67795 10.2352 8.9785 10.548 8.9785 10.9304V12.055ZM11.2981 12.055C11.2981 12.4374 10.9976 12.7502 10.6301 12.7502C10.2626 12.7502 9.9621 12.4373 9.9621 12.055V10.9304C9.9621 10.548 10.2627 10.2352 10.6301 10.2352C10.9976 10.2352 11.2981 10.548 11.2981 10.9304V12.055Z" fill="white"/>
</svg>
